<svg width="92" height="26" viewBox="0 0 92 26" fill="none" xmlns="http://www.w3.org/2000/svg">
<path d="M12.6221 16.5723V20H3.27832V16.5723H12.6221ZM4.86523 1.51562V20H0.40918V1.51562H4.86523ZM21.4326 16.5469V10.8848C21.4326 10.4954 21.3776 10.1611 21.2676 9.88184C21.1576 9.60254 20.984 9.38672 20.7471 9.23438C20.5101 9.07357 20.1927 8.99316 19.7949 8.99316C19.4733 8.99316 19.1982 9.04818 18.9697 9.1582C18.7412 9.26823 18.5677 9.43327 18.4492 9.65332C18.3307 9.87337 18.2715 10.1527 18.2715 10.4912H13.9932C13.9932 9.85645 14.1328 9.26823 14.4121 8.72656C14.6999 8.17643 15.1061 7.69824 15.6309 7.29199C16.1641 6.88574 16.7988 6.57259 17.5352 6.35254C18.2799 6.12402 19.1094 6.00977 20.0234 6.00977C21.1152 6.00977 22.0885 6.19173 22.9434 6.55566C23.8066 6.9196 24.488 7.46549 24.9873 8.19336C25.4867 8.91276 25.7363 9.81836 25.7363 10.9102V16.5342C25.7363 17.4313 25.7871 18.1126 25.8887 18.5781C25.9902 19.0352 26.1341 19.4372 26.3203 19.7842V20H22.0293C21.8262 19.5768 21.6738 19.0605 21.5723 18.4512C21.4792 17.8333 21.4326 17.1986 21.4326 16.5469ZM21.9531 11.6084L21.9785 13.8936H20.0869C19.6891 13.8936 19.3506 13.9486 19.0713 14.0586C18.8005 14.1686 18.5804 14.321 18.4111 14.5156C18.2503 14.7018 18.1318 14.9134 18.0557 15.1504C17.988 15.3874 17.9541 15.637 17.9541 15.8994C17.9541 16.1533 18.0133 16.3818 18.1318 16.585C18.2588 16.7796 18.4281 16.932 18.6396 17.042C18.8512 17.152 19.0882 17.207 19.3506 17.207C19.8245 17.207 20.2266 17.1182 20.5566 16.9404C20.8952 16.7542 21.1533 16.5299 21.3311 16.2676C21.5088 16.0052 21.5977 15.7598 21.5977 15.5312L22.5371 17.2832C22.3678 17.6217 22.1732 17.9645 21.9531 18.3115C21.7415 18.6585 21.4749 18.9801 21.1533 19.2764C20.8402 19.5641 20.4551 19.8011 19.998 19.9873C19.541 20.165 18.9867 20.2539 18.335 20.2539C17.4886 20.2539 16.71 20.0804 15.999 19.7334C15.2965 19.3864 14.7337 18.904 14.3105 18.2861C13.8874 17.6598 13.6758 16.9404 13.6758 16.1279C13.6758 15.417 13.8027 14.7822 14.0566 14.2236C14.319 13.665 14.7126 13.1911 15.2373 12.8018C15.762 12.4124 16.4307 12.1162 17.2432 11.9131C18.0557 11.71 19.012 11.6084 20.1123 11.6084H21.9531ZM32.3125 9.19629V20H28.0342V6.26367H32.0459L32.3125 9.19629ZM31.8047 12.6621L30.8018 12.6875C30.8018 11.638 30.9287 10.7028 31.1826 9.88184C31.4365 9.05241 31.7962 8.34993 32.2617 7.77441C32.7272 7.19889 33.2816 6.76302 33.9248 6.4668C34.5765 6.16211 35.3001 6.00977 36.0957 6.00977C36.7305 6.00977 37.3102 6.10286 37.835 6.28906C38.3682 6.47526 38.8252 6.77572 39.2061 7.19043C39.5954 7.60514 39.8916 8.15527 40.0947 8.84082C40.3063 9.5179 40.4121 10.3558 40.4121 11.3545V20H36.1084V11.3418C36.1084 10.7917 36.0322 10.3727 35.8799 10.085C35.7275 9.78874 35.5075 9.58561 35.2197 9.47559C34.932 9.36556 34.5807 9.31055 34.166 9.31055C33.7259 9.31055 33.3535 9.39518 33.0488 9.56445C32.7441 9.73372 32.4987 9.9707 32.3125 10.2754C32.1348 10.5716 32.0036 10.9229 31.9189 11.3291C31.8428 11.7354 31.8047 12.1797 31.8047 12.6621ZM50.6826 16.8516V0.5H54.9863V20H51.127L50.6826 16.8516ZM42.2529 13.2969V13.0303C42.2529 11.9893 42.3672 11.0413 42.5957 10.1865C42.8242 9.32324 43.1628 8.58268 43.6113 7.96484C44.0599 7.33854 44.6185 6.85612 45.2871 6.51758C45.9557 6.17904 46.7259 6.00977 47.5977 6.00977C48.3763 6.00977 49.0576 6.19173 49.6416 6.55566C50.2256 6.91113 50.7249 7.41048 51.1396 8.05371C51.5544 8.69694 51.8929 9.4502 52.1553 10.3135C52.4176 11.1683 52.6165 12.0908 52.752 13.0811V13.3984C52.6165 14.3294 52.4176 15.2096 52.1553 16.0391C51.8929 16.86 51.5544 17.5879 51.1396 18.2227C50.7249 18.8574 50.2214 19.3568 49.6289 19.7207C49.0449 20.0762 48.3594 20.2539 47.5723 20.2539C46.7005 20.2539 45.9303 20.0804 45.2617 19.7334C44.6016 19.3864 44.0472 18.8997 43.5986 18.2734C43.1585 17.6471 42.8242 16.9108 42.5957 16.0645C42.3672 15.2181 42.2529 14.2956 42.2529 13.2969ZM46.5312 13.0303V13.2969C46.5312 13.8132 46.5651 14.2913 46.6328 14.7314C46.7005 15.1715 46.8148 15.5609 46.9756 15.8994C47.1449 16.2295 47.3649 16.4876 47.6357 16.6738C47.915 16.86 48.2578 16.9531 48.6641 16.9531C49.2142 16.9531 49.667 16.8219 50.0225 16.5596C50.3864 16.2972 50.653 15.9248 50.8223 15.4424C51 14.96 51.0762 14.3929 51.0508 13.7412V12.7383C51.0677 12.1797 51.0296 11.6888 50.9365 11.2656C50.8434 10.834 50.6953 10.4743 50.4922 10.1865C50.2975 9.89876 50.0479 9.68294 49.7432 9.53906C49.4469 9.38672 49.0957 9.31055 48.6895 9.31055C48.2917 9.31055 47.9531 9.40365 47.6738 9.58984C47.403 9.77604 47.1829 10.0384 47.0137 10.377C46.8444 10.707 46.7217 11.1006 46.6455 11.5576C46.5693 12.0062 46.5312 12.4971 46.5312 13.0303ZM61.9307 6.26367V20H57.6396V6.26367H61.9307ZM57.3857 2.72168C57.3857 2.1123 57.6058 1.61296 58.0459 1.22363C58.486 0.83431 59.0573 0.639648 59.7598 0.639648C60.4622 0.639648 61.0335 0.83431 61.4736 1.22363C61.9137 1.61296 62.1338 2.1123 62.1338 2.72168C62.1338 3.33105 61.9137 3.8304 61.4736 4.21973C61.0335 4.60905 60.4622 4.80371 59.7598 4.80371C59.0573 4.80371 58.486 4.60905 58.0459 4.21973C57.6058 3.8304 57.3857 3.33105 57.3857 2.72168ZM68.7734 9.19629V20H64.4951V6.26367H68.5068L68.7734 9.19629ZM68.2656 12.6621L67.2627 12.6875C67.2627 11.638 67.3896 10.7028 67.6436 9.88184C67.8975 9.05241 68.2572 8.34993 68.7227 7.77441C69.1882 7.19889 69.7425 6.76302 70.3857 6.4668C71.0374 6.16211 71.7611 6.00977 72.5566 6.00977C73.1914 6.00977 73.7712 6.10286 74.2959 6.28906C74.8291 6.47526 75.2861 6.77572 75.667 7.19043C76.0563 7.60514 76.3525 8.15527 76.5557 8.84082C76.7673 9.5179 76.873 10.3558 76.873 11.3545V20H72.5693V11.3418C72.5693 10.7917 72.4932 10.3727 72.3408 10.085C72.1885 9.78874 71.9684 9.58561 71.6807 9.47559C71.3929 9.36556 71.0417 9.31055 70.627 9.31055C70.1868 9.31055 69.8145 9.39518 69.5098 9.56445C69.2051 9.73372 68.9596 9.9707 68.7734 10.2754C68.5957 10.5716 68.4645 10.9229 68.3799 11.3291C68.3037 11.7354 68.2656 12.1797 68.2656 12.6621ZM87.8799 6.26367H91.7646V19.4668C91.7646 20.7363 91.4727 21.8112 90.8887 22.6914C90.3047 23.5801 89.488 24.2529 88.4385 24.71C87.3975 25.1755 86.1787 25.4082 84.7822 25.4082C84.1644 25.4082 83.5339 25.3278 82.8906 25.167C82.2474 25.0146 81.6465 24.7861 81.0879 24.4814C80.5293 24.1768 80.0596 23.8001 79.6787 23.3516L81.4688 20.8379C81.8158 21.2272 82.2516 21.5573 82.7764 21.8281C83.3011 22.1074 83.9189 22.2471 84.6299 22.2471C85.2477 22.2471 85.764 22.137 86.1787 21.917C86.6019 21.6969 86.9235 21.3753 87.1436 20.9521C87.3636 20.5374 87.4736 20.0339 87.4736 19.4414V9.51367L87.8799 6.26367ZM78.752 13.2969V13.0303C78.752 11.9893 78.8789 11.0413 79.1328 10.1865C79.3952 9.32324 79.7676 8.58268 80.25 7.96484C80.7409 7.33854 81.3333 6.85612 82.0273 6.51758C82.7214 6.17904 83.5042 6.00977 84.376 6.00977C85.3154 6.00977 86.0856 6.19173 86.6865 6.55566C87.2959 6.91113 87.7826 7.41048 88.1465 8.05371C88.5189 8.69694 88.8066 9.4502 89.0098 10.3135C89.2214 11.1683 89.3991 12.0908 89.543 13.0811V13.3984C89.3991 14.3294 89.2002 15.2096 88.9463 16.0391C88.7008 16.86 88.3792 17.5879 87.9814 18.2227C87.5837 18.8574 87.0843 19.3568 86.4834 19.7207C85.891 20.0762 85.18 20.2539 84.3506 20.2539C83.4873 20.2539 82.7087 20.0804 82.0146 19.7334C81.3291 19.3864 80.7409 18.8997 80.25 18.2734C79.7676 17.6471 79.3952 16.9108 79.1328 16.0645C78.8789 15.2181 78.752 14.2956 78.752 13.2969ZM83.0303 13.0303V13.2969C83.0303 13.8132 83.0768 14.2913 83.1699 14.7314C83.2715 15.1715 83.4238 15.5609 83.627 15.8994C83.8301 16.2295 84.0798 16.4876 84.376 16.6738C84.6807 16.86 85.0361 16.9531 85.4424 16.9531C86.0602 16.9531 86.5596 16.8219 86.9404 16.5596C87.3213 16.2972 87.5964 15.9248 87.7656 15.4424C87.9349 14.96 88.0068 14.3929 87.9814 13.7412V12.7383C87.9984 12.1797 87.9603 11.6888 87.8672 11.2656C87.7741 10.834 87.626 10.4743 87.4229 10.1865C87.2282 9.89876 86.9658 9.68294 86.6357 9.53906C86.3141 9.38672 85.9248 9.31055 85.4678 9.31055C85.07 9.31055 84.7188 9.40365 84.4141 9.58984C84.1094 9.77604 83.8555 10.0384 83.6523 10.377C83.4492 10.707 83.2926 11.1006 83.1826 11.5576C83.0811 12.0062 83.0303 12.4971 83.0303 13.0303Z" fill="#37447E"/>
</svg>
